<?xml version="1.0" encoding="UTF-8" standalone="no"?><!DOCTYPE svg PUBLIC "-//W3C//DTD SVG 1.1//EN" "http://www.w3.org/Graphics/SVG/1.1/DTD/svg11.dtd"><svg width="100%" height="100%" viewBox="0 0 1000 137" version="1.1" xmlns="http://www.w3.org/2000/svg" xmlns:xlink="http://www.w3.org/1999/xlink" xml:space="preserve" xmlns:serif="http://www.serif.com/" style="fill-rule:evenodd;clip-rule:evenodd;stroke-linejoin:round;stroke-miterlimit:2;"><path d="M138.88,108.89l0,-80.72c0,-0.417 0.344,-0.76 0.762,-0.76l24.453,0c8.479,0 15.698,1.227 21.657,3.68c5.487,2.15 10.407,5.527 14.382,9.87c3.565,3.986 6.273,8.659 7.957,13.73c1.66,4.921 2.513,10.078 2.526,15.27c0.092,5.668 -1.064,11.287 -3.388,16.46c-2.158,4.779 -5.299,9.051 -9.22,12.54c-3.948,3.49 -8.54,6.181 -13.519,7.92c-5.226,1.847 -10.733,2.774 -16.276,2.74l-28.522,0c-0.014,0.001 -0.027,0.001 -0.041,0.001c-0.409,0 -0.75,-0.324 -0.771,-0.731Zm16.616,-15.7c0,0.417 0.344,0.76 0.762,0.76l9.1,0c3.879,0.048 7.742,-0.499 11.455,-1.62c3.245,-0.979 6.263,-2.59 8.879,-4.74c2.512,-2.132 4.475,-4.834 5.723,-7.88c1.392,-3.456 2.074,-7.156 2.004,-10.88c0,-5.333 -0.898,-9.707 -2.696,-13.12c-1.56,-3.11 -3.837,-5.808 -6.644,-7.87c-2.43,-1.773 -5.164,-3.088 -8.068,-3.88c-2.285,-0.642 -4.642,-0.998 -7.015,-1.06l-12.678,0c-0.418,0 -0.761,0.343 -0.761,0.76l-0.061,49.53Z" style="fill-rule:nonzero;"/><path d="M233.75,27.41l56.002,0c0.418,0 0.762,0.343 0.762,0.76l0,14.11c0,0.417 -0.344,0.76 -0.762,0.76l-39.386,0c-0.417,0 -0.761,0.343 -0.761,0.76l0,16c0,0.417 0.344,0.76 0.761,0.76l34.666,0c0.42,-0.006 0.771,0.331 0.782,0.75l0,14.12c0,0.417 -0.344,0.76 -0.762,0.76l-34.665,0c-0.42,-0.006 -0.771,0.331 -0.782,0.75l0,16.24c0,0.417 0.344,0.76 0.761,0.76l40.99,0c0.418,0 0.762,0.343 0.762,0.76l0,14.11c0,0.417 -0.344,0.76 -0.762,0.76l-57.606,0c-0.418,0 -0.761,-0.343 -0.761,-0.76l0,-80.64c0,-0.417 0.343,-0.76 0.761,-0.76Z" style="fill-rule:nonzero;"/><path d="M424.23,68.61c-0.039,-5.53 1.081,-11.007 3.287,-16.08c9.284,-21.537 34.597,-31.732 56.263,-22.66c5.162,2.184 9.873,5.307 13.89,9.21c3.981,3.839 7.186,8.405 9.441,13.45c2.246,5.063 3.397,10.543 3.377,16.08c0.046,5.627 -1.105,11.2 -3.377,16.35c-2.227,5.027 -5.421,9.57 -9.401,13.37c-3.997,3.833 -8.677,6.885 -13.8,9c-16.045,6.622 -34.59,3.074 -47.042,-9c-3.934,-3.809 -7.08,-8.352 -9.261,-13.37c-2.258,-5.154 -3.409,-10.725 -3.377,-16.35Zm17.187,0c0,0.077 -0.001,0.154 -0.001,0.231c0,14.177 11.621,25.874 25.828,25.999l0.531,0c3.443,0.031 6.856,-0.65 10.022,-2c3.051,-1.308 5.801,-3.227 8.078,-5.64c9.857,-10.469 9.781,-27.021 -0.171,-37.4c-2.323,-2.406 -5.108,-4.32 -8.188,-5.63c-3.229,-1.396 -6.712,-2.117 -10.232,-2.117c-10.245,0 -19.555,6.104 -23.622,15.487c-0.1,0.23 -0.2,0.46 -0.29,0.69c-1.322,3.3 -1.985,6.826 -1.955,10.38Z" style="fill-rule:nonzero;"/><path d="M595.73,102.22c0.153,0.328 0.047,0.722 -0.25,0.93c-1.475,0.981 -3.015,1.859 -4.61,2.63c-2.913,1.428 -5.966,2.551 -9.11,3.35c-3.895,1.009 -7.914,1.46 -11.936,1.34c-6.108,-0.04 -12.154,-1.231 -17.819,-3.51c-9.935,-4.035 -17.76,-12.006 -21.597,-22c-1.934,-5.025 -2.906,-10.367 -2.867,-15.75c-0.075,-5.878 0.913,-11.722 2.917,-17.25c1.84,-5.024 4.687,-9.621 8.368,-13.51c3.677,-3.816 8.116,-6.821 13.029,-8.82c5.314,-2.13 10.999,-3.19 16.726,-3.12c5.1,-0.092 10.18,0.662 15.033,2.23c3.506,1.143 6.887,2.637 10.092,4.46c0.324,0.19 0.458,0.595 0.311,0.94l-5.903,13.82c-0.129,0.281 -0.411,0.463 -0.721,0.463c-0.114,0 -0.228,-0.025 -0.332,-0.073l-0.12,-0.07c-2.176,-1.448 -4.457,-2.731 -6.825,-3.84c-3.426,-1.583 -7.169,-2.367 -10.944,-2.29c-3.177,-0.008 -6.319,0.657 -9.22,1.95c-2.927,1.307 -5.562,3.187 -7.747,5.53c-2.297,2.417 -4.119,5.242 -5.371,8.33c-1.322,3.286 -1.986,6.799 -1.955,10.34c-0.046,3.686 0.558,7.352 1.784,10.83c1.094,3.131 2.828,6.002 5.091,8.43c2.248,2.363 4.984,4.209 8.018,5.41c3.334,1.304 6.892,1.943 10.473,1.88c3.964,0.107 7.907,-0.616 11.575,-2.12c2.336,-0.968 4.536,-2.235 6.544,-3.77c0.136,-0.111 0.307,-0.172 0.483,-0.172c0.234,0 0.455,0.108 0.6,0.292c0.041,0.044 0.075,0.095 0.1,0.15l6.183,12.99Z" style="fill-rule:nonzero;"/><path d="M689.25,28.15l0,80.67c-0.005,0.419 -0.352,0.76 -0.771,0.76l-15.033,0c-0.418,0 -0.762,-0.343 -0.762,-0.76l0,-31.86c-0.005,-0.413 -0.347,-0.75 -0.761,-0.75l-36.199,0c-0.415,0 -0.757,0.337 -0.762,0.75l0,31.86c0,0.417 -0.344,0.76 -0.762,0.76l-15.053,0c-0.419,0 -0.766,-0.341 -0.771,-0.76l0,-80.65c0.005,-0.419 0.352,-0.76 0.771,-0.76l15.053,0c0.418,0 0.762,0.343 0.762,0.76l0,31.64c0,0.417 0.344,0.76 0.762,0.76l36.149,0c0.414,0 0.756,-0.337 0.761,-0.75l0,-31.65c0,-0.417 0.344,-0.76 0.762,-0.76l15.053,0c0.01,0 0.02,-0.001 0.03,-0.001c0.413,0 0.756,0.33 0.771,0.741Z" style="fill-rule:nonzero;"/><path d="M730.48,93.425l-6.323,14.915c-0.313,0.759 -1.062,1.252 -1.884,1.24l-11.886,0c-0.017,0 -0.034,0.001 -0.051,0.001c-1.099,0 -2.004,-0.903 -2.004,-2l0,-0.001c0.015,-0.285 0.087,-0.563 0.211,-0.82l35.798,-79c0.298,-0.768 1.043,-1.278 1.869,-1.278c0.826,0 1.571,0.51 1.869,1.278l34.926,79.01c0.442,0.996 -0.009,2.179 -1.002,2.63c-0.264,0.12 -0.552,0.178 -0.842,0.17l-14.782,0c-0.833,0.012 -1.59,-0.496 -1.894,-1.27l-5.944,-14.8l-27.519,0c-0.188,0 -0.37,-0.026 -0.542,-0.075Zm5.742,-13.545l16.85,0l-8.197,-20.412l-8.653,20.412Z" style="fill-rule:nonzero;"/><path d="M829.88,83.5l-10.27,0c-0.418,0 -0.762,0.343 -0.762,0.76l0,24.61c-0.005,0.419 -0.352,0.76 -0.771,0.76l-15.053,0c-0.418,0 -0.762,-0.343 -0.762,-0.76l0,-80.7c0,-0.417 0.344,-0.76 0.762,-0.76l24.784,0c4.772,-0.057 9.524,0.618 14.091,2c3.795,1.124 7.318,3.013 10.352,5.55c2.757,2.377 4.931,5.353 6.354,8.7c1.503,3.628 2.246,7.525 2.185,11.45c-0.009,3.409 -0.532,6.797 -1.554,10.05c-1.031,3.357 -2.736,6.471 -5.01,9.15c-1.927,2.215 -4.227,4.066 -6.79,5.473l18.846,28.677c0.193,0.341 0.092,0.778 -0.231,1c-0.126,0.079 -0.272,0.12 -0.421,0.12l-17.528,0c-0.259,-0.001 -0.502,-0.128 -0.651,-0.34l-17.571,-25.74Zm0.794,-15.68c2.167,0.073 4.322,-0.344 6.304,-1.22c1.546,-0.716 2.9,-1.789 3.949,-3.13c0.923,-1.199 1.623,-2.554 2.064,-4c0.4,-1.245 0.612,-2.543 0.631,-3.85c-0.032,-1.146 -0.167,-2.287 -0.4,-3.41c-0.31,-1.481 -0.873,-2.899 -1.664,-4.19c-0.943,-1.506 -2.267,-2.737 -3.838,-3.57c-2.14,-1.069 -4.515,-1.581 -6.906,-1.49l-11.204,0c-0.418,0 -0.762,0.343 -0.762,0.76l0,23.31c0.006,0.413 0.348,0.75 0.762,0.75l11.064,0.04Z" style="fill-rule:nonzero;"/><path d="M871.07,27.41l55.301,0c0.418,0 0.762,0.343 0.762,0.76l0,14.11c0,0.417 -0.344,0.76 -0.762,0.76l-18.981,0c-0.42,0 -0.767,0.341 -0.772,0.76l0,65c0,0.417 -0.344,0.76 -0.762,0.76l-15.073,0c-0.417,0 -0.761,-0.343 -0.761,-0.76l0,-65c-0.006,-0.419 -0.352,-0.76 -0.772,-0.76l-18.17,0c-0.414,0 -0.756,-0.337 -0.761,-0.75l0,-14.12c0,-0.413 0.337,-0.755 0.751,-0.76Z" style="fill-rule:nonzero;"/><path d="M994.28,46.59c-0.197,0.351 -0.638,0.491 -1.002,0.32c-2.94,-1.521 -5.992,-2.814 -9.13,-3.87c-3.002,-1.058 -6.157,-1.622 -9.34,-1.67c-3.598,0 -6.414,0.7 -8.479,2.12c-2.075,1.43 -3.252,3.848 -3.097,6.36c0.022,1.98 0.873,3.863 2.346,5.19c1.789,1.68 3.84,3.058 6.073,4.08c2.521,1.21 5.103,2.289 7.737,3.23c2.487,0.917 4.917,1.982 7.276,3.19c2.381,1.197 4.572,2.736 6.504,4.57c1.99,1.941 3.553,4.274 4.59,6.85c1.224,3.157 1.81,6.526 1.724,9.91c0.008,1.683 -0.18,3.361 -0.562,5c-1.65,6.787 -5.816,11.897 -12.497,15.33c-4.276,2.2 -9.547,3.297 -15.814,3.29c-3.29,-0.011 -6.572,-0.329 -9.802,-0.95c-3.352,-0.64 -6.632,-1.611 -9.791,-2.9c-3.038,-1.239 -5.948,-2.769 -8.689,-4.57c-0.327,-0.219 -0.432,-0.657 -0.241,-1l6.555,-11.28c0.143,-0.235 0.4,-0.378 0.675,-0.378c0.148,0 0.292,0.041 0.417,0.118c1.833,1.241 3.763,2.331 5.773,3.26c2.255,1.051 4.604,1.891 7.015,2.51c2.134,0.56 4.328,0.859 6.534,0.89c2.033,-0.008 4.056,-0.291 6.013,-0.84c1.892,-0.49 3.621,-1.47 5.011,-2.84c1.416,-1.492 2.162,-3.498 2.065,-5.55c0.002,-1.639 -0.585,-3.225 -1.654,-4.47c-1.266,-1.475 -2.778,-2.72 -4.47,-3.68c-1.949,-1.158 -4.002,-2.132 -6.133,-2.91c-2.592,-0.96 -5.265,-2.077 -8.018,-3.35c-2.765,-1.26 -5.377,-2.83 -7.786,-4.68c-2.412,-1.829 -4.404,-4.151 -5.843,-6.81c-1.58,-3.091 -2.349,-6.532 -2.235,-10c-0.315,-8.751 4.606,-16.899 12.507,-20.71c4.281,-2.117 8.974,-3.274 13.75,-3.39c6.802,0 12.32,0.783 16.556,2.35c3.778,1.361 7.405,3.107 10.824,5.21c0.337,0.21 0.456,0.649 0.271,1l-5.633,11.07Z" style="fill-rule:nonzero;"/><path d="M357.51,84.206l-18.576,-22.193c-1.516,-1.74 -4.508,-0.297 -4.508,0.988l0,45.198c-0.005,0.772 -0.643,1.404 -1.417,1.404l-14.693,0c-0.766,0 -1.4,-0.62 -1.416,-1.384l0,-79.353c0.005,-0.772 0.643,-1.404 1.417,-1.404l10.333,0c0.41,0.004 0.8,0.176 1.08,0.475l31.188,36.221c0.276,0.301 0.666,0.473 1.075,0.473c0.365,0 0.717,-0.137 0.986,-0.384l0.129,-0.138l32.129,-36.133c0.275,-0.328 0.681,-0.519 1.11,-0.524l8.807,0c0.779,-0.005 1.426,0.627 1.437,1.404l0,79.323c-0.005,0.772 -0.643,1.404 -1.417,1.404l-14.871,0c-0.77,0 -1.406,-0.626 -1.416,-1.394l0,-45.148c0,-1.295 -2.279,-2.422 -3.537,-0.91l-19.736,22.006c-0.24,0.27 -0.572,0.442 -0.931,0.484l-5.944,0c-0.452,0.063 -0.908,-0.091 -1.229,-0.415Z" style="fill-rule:nonzero;"/><path d="M41.931,42.04c1.803,-11.081 12.282,-18.617 23.387,-16.818c11.106,1.798 18.658,12.255 16.855,23.336c-1.802,11.081 -12.282,18.617 -23.387,16.818c-11.105,-1.799 -18.658,-12.255 -16.855,-23.336Z" style="fill:#e73939;"/><ellipse cx="69.301" cy="97.42" rx="13.95" ry="13.92" style="fill:#e73939;"/><ellipse cx="17.067" cy="81.65" rx="17.067" ry="17.03" style="fill:#e73939;"/><ellipse cx="34.145" cy="125.75" rx="11.275" ry="11.25" style="fill:#e73939;"/></svg>