<?xml version="1.0" encoding="iso-8859-1"?>
<!-- Generator: Adobe Illustrator 19.0.0, SVG Export Plug-In . SVG Version: 6.00 Build 0)  -->
<svg version="1.1" id="Capa_1" xmlns="http://www.w3.org/2000/svg" xmlns:xlink="http://www.w3.org/1999/xlink" x="0px" y="0px"
	 viewBox="0 0 512 512" style="enable-background:new 0 0 512 512;" xml:space="preserve">
<g>
	<g>
		<path d="M480,21.333H96v21.333h384c5.891,0,10.667,4.776,10.667,10.667v405.333c0,5.891-4.776,10.667-10.667,10.667H96v21.333h384
			c17.673,0,32-14.327,32-32V53.333C512,35.66,497.673,21.333,480,21.333z"/>
	</g>
</g>
<g>
	<g>
		<path d="M32,42.667h42.667V21.333H32c-17.673,0-32,14.327-32,32v405.333c0,17.673,14.327,32,32,32h42.667v-21.333H32
			c-5.891,0-10.667-4.776-10.667-10.667V53.333C21.333,47.442,26.109,42.667,32,42.667z"/>
	</g>
</g>
<g>
	<g>
		<rect x="53.333" y="21.333" width="21.333" height="469.333"/>
	</g>
</g>
<g>
	<g>
		<path d="M288,74.667c-100.148,0-181.333,81.186-181.333,181.333S187.852,437.333,288,437.333
			C388.101,437.222,469.222,356.101,469.333,256C469.333,155.852,388.148,74.667,288,74.667z M288,416c-88.366,0-160-71.634-160-160
			S199.634,96,288,96c88.324,0.1,159.9,71.676,160,160C448,344.366,376.366,416,288,416z"/>
	</g>
</g>
<g>
	<g>
		<path d="M288,213.333c-23.564,0-42.667,19.103-42.667,42.667s19.103,42.667,42.667,42.667s42.667-19.103,42.667-42.667
			S311.564,213.333,288,213.333z M288,277.333c-11.782,0-21.333-9.551-21.333-21.333s9.551-21.333,21.333-21.333
			s21.333,9.551,21.333,21.333S299.782,277.333,288,277.333z"/>
	</g>
</g>
<g>
	<g>
		<path d="M160,256h21.333c0.065-58.884,47.783-106.602,106.667-106.667V128C217.339,128.076,160.076,185.339,160,256z"/>
	</g>
</g>
<g>
	<g>
		<path d="M394.667,256C394.602,314.884,346.884,362.602,288,362.667V384c70.661-0.076,127.924-57.339,128-128H394.667z"/>
	</g>
</g>
<g>
	<g>
		<rect x="160" y="277.333" width="21.333" height="21.333"/>
	</g>
</g>
<g>
	<g>
		<rect x="394.667" y="213.333" width="21.333" height="21.333"/>
	</g>
</g>
<g>
</g>
<g>
</g>
<g>
</g>
<g>
</g>
<g>
</g>
<g>
</g>
<g>
</g>
<g>
</g>
<g>
</g>
<g>
</g>
<g>
</g>
<g>
</g>
<g>
</g>
<g>
</g>
<g>
</g>
</svg>
