<svg id="Capa_1" enable-background="new 0 0 512 512" height="512" viewBox="0 0 512 512" width="512" xmlns="http://www.w3.org/2000/svg"><g><g><path d="m405.981 261.356c-9.065 46.176 104.696 59.582 61.181 163.25-46.745 111.361-333.577 149.52-438.632-89.141-110.932-252.009 127.266-375.347 275.704-323.991 122.276 42.304 123.362 139.781 101.747 249.882z" fill="#ffe9c8"/><path d="m405.981 261.356c21.615-110.101 20.529-207.578-101.747-249.882-60.132-20.804-134.992-12.937-195.408 20.535 56.7-25.468 122.724-29.964 176.827-11.245 122.276 42.305 123.362 139.781 101.747 249.882-9.065 46.176 104.696 59.582 61.181 163.25-9.613 22.9-29.384 42.701-55.634 57.639 35.464-15.508 62.448-38.897 74.215-66.93 43.515-103.667-70.246-117.073-61.181-163.249z" fill="#ffdca7"/><ellipse cx="386.917" cy="384.748" fill="#009e65" rx="32.769" ry="32.769" transform="matrix(.925 -.379 .379 .925 -116.929 175.284)"/><path d="m386.917 351.979c-3.228 0-6.344.475-9.29 1.344 13.571 4.006 23.479 16.555 23.479 31.425s-9.908 27.419-23.479 31.425c2.946.87 6.062 1.344 9.29 1.344 18.098 0 32.769-14.671 32.769-32.769s-14.672-32.769-32.769-32.769z" fill="#008954"/><ellipse cx="283.404" cy="417.518" fill="#00e0a7" rx="32.769" ry="32.769" transform="matrix(.977 -.212 .212 .977 -82.055 69.555)"/><path d="m283.404 384.748c-3.228 0-6.344.474-9.29 1.344 13.571 4.006 23.479 16.555 23.479 31.425s-9.908 27.419-23.479 31.425c2.946.87 6.062 1.344 9.29 1.344 18.098 0 32.769-14.671 32.769-32.769 0-18.097-14.671-32.769-32.769-32.769z" fill="#00c988"/><circle cx="116.488" cy="299.005" fill="#0df" r="32.769"/><path d="m116.488 266.236c-3.228 0-6.344.474-9.29 1.344 13.572 4.006 23.479 16.555 23.479 31.425s-9.907 27.419-23.479 31.425c2.946.87 6.062 1.344 9.29 1.344 18.098 0 32.769-14.671 32.769-32.769.001-18.098-14.671-32.769-32.769-32.769z" fill="#00d0fd"/><ellipse cx="93.948" cy="192.37" fill="#ff656b" rx="32.769" ry="32.769" transform="matrix(.929 -.371 .371 .929 -64.703 48.627)"/><path d="m93.948 159.6c-3.228 0-6.344.474-9.29 1.344 13.571 4.006 23.479 16.555 23.479 31.425s-9.908 27.419-23.479 31.425c2.946.87 6.062 1.344 9.29 1.344 18.098 0 32.769-14.671 32.769-32.769 0-18.097-14.671-32.769-32.769-32.769z" fill="#ff3e4c"/><ellipse cx="164.794" cy="109.384" fill="#ff9a00" rx="32.769" ry="32.769" transform="matrix(.987 -.162 .162 .987 -15.53 28.111)"/><path d="m164.794 76.615c-3.228 0-6.344.475-9.29 1.344 13.571 4.006 23.479 16.555 23.479 31.425s-9.908 27.419-23.479 31.425c2.946.87 6.062 1.344 9.29 1.344 18.098 0 32.769-14.671 32.769-32.769.001-18.098-14.671-32.769-32.769-32.769z" fill="#ef8800"/><circle cx="276.471" cy="99.278" fill="#ffdc00" r="32.769"/><path d="m276.471 66.509c-3.228 0-6.344.475-9.29 1.344 13.571 4.006 23.479 16.555 23.479 31.425s-9.908 27.419-23.479 31.425c2.946.87 6.062 1.344 9.29 1.344 18.098 0 32.769-14.671 32.769-32.769s-14.671-32.769-32.769-32.769z" fill="#ffbf00"/><path d="m273.215 316.059-28.807-28.806 22.99-55.192 61.008 61.009z" fill="#e6e2e6"/><path d="m259.04 342.252-40.825-40.825c-5.573-5.574-5.573-14.61 0-20.184 5.574-5.574 14.61-5.574 20.184 0l40.825 40.825c5.574 5.574 5.574 14.61 0 20.184-5.574 5.574-14.611 5.574-20.184 0z" fill="#ffdc00"/><path d="m252.906 336.119-28.558-28.558c-11.451-2.246-23.776 1.064-32.647 9.935-11.077 11.077-22.296 53.682-26.654 71.697-.907 3.75 2.476 7.133 6.225 6.225 18.016-4.358 60.62-15.576 71.697-26.654 8.873-8.87 12.184-21.195 9.937-32.645z" fill="#bc6640"/><path d="m328.406 293.07-61.008-61.009 203.831-177.54c9.753-8.495 24.417-7.99 33.562 1.156 9.145 9.145 9.65 23.81 1.155 33.562z" fill="#8c808a"/><g><path d="m315.268 279.931-55.192 22.99 13.139 13.138 55.191-22.989z" fill="#d8d1d7"/><path d="m279.224 322.068-13.139-13.138c5.574 5.574 5.574 14.61 0 20.184s-14.61 5.574-20.184 0l13.139 13.139c5.574 5.573 14.61 5.574 20.184 0 5.573-5.574 5.573-14.611 0-20.185z" fill="#ffbf00"/><path d="m252.906 336.119-13.139-13.139c2.247 11.451-1.064 23.776-9.935 32.647-9.471 9.471-41.984 19.044-62.476 24.345-.899 3.474-1.675 6.603-2.307 9.216-.908 3.753 2.471 7.139 6.224 6.231 18.016-4.358 60.62-15.577 71.697-26.654 8.872-8.871 12.183-21.196 9.936-32.646z" fill="#a05638"/><path d="m492.808 76.1-177.54 203.831 13.138 13.138 177.54-203.831c8.495-9.753 7.99-24.417-1.155-33.562-2.32-2.32-4.996-4.081-7.855-5.283 3.537 8.414 2.212 18.428-4.128 25.707z" fill="#7b7179"/></g></g></g></svg>