<svg id="Capa_1" enable-background="new 0 0 512 512" height="512" viewBox="0 0 512 512" width="512" xmlns="http://www.w3.org/2000/svg"><g><g><path d="m28.521 512h-13.521c-8.284 0-15-6.716-15-15v-13.521c0-36.187 9.239-72.069 26.717-103.769 17.416-31.585 42.723-58.509 73.186-77.86 5.93-3.768 13.682-2.915 18.649 2.055l89.542 89.543c4.968 4.968 5.822 12.719 2.055 18.649-19.352 30.463-46.276 55.77-77.861 73.186-31.699 17.479-67.581 26.717-103.767 26.717z" fill="#ffe137"/><path d="m15 512h13.521c36.186 0 72.068-9.238 103.768-26.717 31.585-17.416 58.509-42.723 77.861-73.186 3.768-5.931 2.914-13.682-2.055-18.649l-44.771-44.771-158.931 158.929c2.715 2.715 6.465 4.394 10.607 4.394z" fill="#ffc808"/><path d="m322.429 487.416c-.799 0-1.603-.063-2.403-.193-4.76-.772-8.857-3.786-11.014-8.099l-44.095-88.188c-3.251-6.501-1.372-14.397 4.458-18.739l130.326-97.041c4.381-3.263 10.189-3.885 15.163-1.625s8.325 7.044 8.75 12.49c4.891 62.742-17.815 124.237-62.296 168.718l-28.284 28.284c-2.835 2.834-6.661 4.393-10.605 4.393z" fill="#fb4021"/><path d="m127.765 248.669c-2.267 0-4.559-.514-6.701-1.585l-88.188-44.095c-4.313-2.156-7.326-6.254-8.098-11.014-.772-4.759.79-9.6 4.2-13.009l28.285-28.284c44.48-44.481 105.98-67.181 168.717-62.296 5.446.425 10.231 3.776 12.491 8.75s1.637 10.782-1.625 15.163l-97.042 130.326c-2.911 3.911-7.422 6.044-12.039 6.044z" fill="#ff6641"/><path d="m493.67 164.48c-38.277-2.084-74.196-18.069-101.139-45.011-26.941-26.942-42.927-62.861-45.011-101.139l-.272-4.995c-49.555 14.846-95.448 41.802-133.093 79.447l-.743.744c-58.218 58.218-102.396 126.825-131.305 203.917-2.065 5.508-.721 11.714 3.438 15.873l113.137 113.137c2.864 2.865 6.7 4.394 10.609 4.394 1.767 0 3.55-.313 5.264-.955 77.091-28.909 145.698-73.086 203.916-131.305l.747-.747c37.643-37.643 64.597-83.534 79.443-133.088z" fill="#e6f3ff"/><path d="m198.684 426.454c2.864 2.865 6.7 4.394 10.609 4.394 1.767 0 3.55-.313 5.264-.955 77.091-28.909 145.698-73.086 203.917-131.305l.747-.747c37.643-37.643 64.597-83.534 79.443-133.088l-4.994-.272c-38.277-2.084-74.196-18.069-101.139-45.011l-250.416 250.415z" fill="#d2dcf0"/><path d="m506.891 17.184c-1.117-6.146-5.928-10.957-12.074-12.074-53.545-9.737-107.82-5.378-157.933 11.529l.637 11.691c2.084 38.277 18.069 74.196 45.011 101.139 26.942 26.941 62.861 42.927 101.139 45.011l11.691.637c16.906-50.112 21.264-104.387 11.529-157.933z" fill="#ff6641"/><path d="m382.531 129.469c26.942 26.941 62.861 42.927 101.139 45.011l11.691.637c16.907-50.112 21.265-104.386 11.53-157.933-.559-3.073-2.041-5.813-4.152-7.923z" fill="#fb4021"/><path d="m315.357 261.644c-17.362 0-33.686-6.761-45.962-19.038-12.277-12.276-19.039-28.6-19.039-45.962s6.761-33.686 19.039-45.962c12.276-12.277 28.6-19.038 45.962-19.038s33.686 6.761 45.962 19.038c12.277 12.276 19.038 28.6 19.038 45.962s-6.761 33.686-19.038 45.962c-12.277 12.277-28.6 19.038-45.962 19.038z" fill="#ff6641"/><path d="m110.296 416.706c-3.839 0-7.678-1.465-10.606-4.394-5.858-5.857-5.858-15.355 0-21.213l127.278-127.279c5.857-5.857 15.355-5.857 21.213 0s5.858 15.355 0 21.213l-127.279 127.279c-2.929 2.929-6.768 4.394-10.606 4.394z" fill="#ff6641"/><g fill="#fb4021"><path d="m269.395 242.606c12.276 12.277 28.6 19.038 45.962 19.038s33.686-6.761 45.962-19.038c12.277-12.276 19.038-28.6 19.038-45.962s-6.761-33.686-19.038-45.962z"/><path d="m99.689 412.312c2.929 2.929 6.768 4.394 10.606 4.394s7.678-1.465 10.606-4.394l127.279-127.279c5.858-5.857 5.858-15.355 0-21.213 0 0 0 0-.001 0z"/></g></g><path d="m315.357 231.644c-9.349 0-18.138-3.64-24.749-10.251-6.611-6.61-10.252-15.4-10.252-24.749s3.641-18.138 10.252-24.749c6.61-6.611 15.4-10.251 24.749-10.251s18.138 3.64 24.749 10.251c6.611 6.61 10.251 15.4 10.251 24.749s-3.64 18.138-10.251 24.749-15.401 10.251-24.749 10.251z" fill="#84d6ff"/><path d="m290.608 221.393c6.61 6.611 15.4 10.251 24.749 10.251s18.138-3.64 24.749-10.251c6.611-6.61 10.251-15.4 10.251-24.749s-3.64-18.138-10.251-24.749z" fill="#37c3ff"/></g></svg>