<svg xmlns="http://www.w3.org/2000/svg" width="1924.097" height="3321.37" viewBox="0 0 1924.097 3321.37">
  <g id="Gruppe_669" data-name="Gruppe 669" transform="translate(0.221 1103.055)">
    <g id="Gruppe_350" data-name="Gruppe 350">
      <g id="background_lines" data-name="background lines" transform="translate(0 -1100)" style="isolation: isolate">
        <path id="Pfad_3388" data-name="Pfad 3388" d="M780.723,1080s-49.581-209.855,0-505.364S1075.937-12.94,1075.937-12.94" transform="translate(-204.295 1103)" fill="none" stroke="#707070" stroke-width="1" opacity="0.3"/>
        <path id="Pfad_6" data-name="Pfad 6" d="M0,147.383S220.351,39.067,624.574,47.427,1453.534,278,1453.534,278,1786.2,435.419,1923.472,624.6" transform="translate(0 10)" fill="none" stroke="#707070" stroke-width="1" opacity="0.3"/>
        <path id="Pfad_7" data-name="Pfad 7" d="M1053.9-12.941s49.581,209.855,0,505.364S758.687,1080,758.687,1080" transform="translate(112.705 10)" fill="none" stroke="#707070" stroke-width="1" opacity="0.3"/>
      </g>
    </g>
    <g id="background_lines-2" data-name="background lines" transform="translate(-579 1083)" style="isolation: isolate">
      <path id="Pfad_6-2" data-name="Pfad 6" d="M0,147.383S219.953,39.067,623.447,47.427,1450.91,278,1450.91,278,1782.972,435.419,1920,624.6" transform="translate(579 10)" fill="none" stroke="#707070" stroke-width="1" opacity="0.3"/>
      <path id="Pfad_7-2" data-name="Pfad 7" d="M1053.9-12.941s49.581,218.5,0,526.171S758.687,1125,758.687,1125" transform="translate(100.705 10)" fill="none" stroke="#707070" stroke-width="1" opacity="0.3"/>
    </g>
  </g>
</svg>
