<svg id="Ebene_1" data-name="Ebene 1" xmlns="http://www.w3.org/2000/svg" viewBox="0 0 1920 5400"><defs><style>.cls-1,.cls-2{fill:none;stroke:#707070;}.cls-1{opacity:0.3;isolation:isolate;}.cls-2{opacity:0.3;}</style></defs><g id="Gruppe_669" data-name="Gruppe 669"><g id="Gruppe_350" data-name="Gruppe 350"><g id="background_lines" data-name="background lines"><path id="Pfad_3388" data-name="Pfad 3388" class="cls-1" d="M574.69,2185.94s-49.58-209.85,0-505.36S869.91,1093,869.91,1093"/><path id="Pfad_6" data-name="Pfad 6" class="cls-1" d="M-1.74,160.32S218.61,52,622.84,60.37s829,230.57,829,230.57,332.66,157.42,469.94,346.6"/><path id="Pfad_7" data-name="Pfad 7" class="cls-1" d="M1164.87,0s49.58,209.86,0,505.36-295.21,587.58-295.21,587.58"/></g></g><g id="background_lines-2" data-name="background lines-2"><path id="Pfad_6-2" data-name="Pfad 6-2" class="cls-1" d="M-1.74,2343.32s220-108.31,623.45-100,827.46,230.57,827.46,230.57,332.07,157.42,469.09,346.6"/></g></g><path id="Pfad_6-2-2" data-name="Pfad 6-2" class="cls-1" d="M-.43,933.66c598.66,12.41,1227.69,342.1,1227.69,342.1s492.67,233.56,696,514.24"/><path id="Pfad_3388-2" data-name="Pfad 3388" class="cls-1" d="M531.83,4307s-255.42-290.59-295.21-587.58c-26.12-194.92-20.46-279.72,52.65-412.1,114.23-206.82,241.2-328.86,284.6-598.15,49.58-307.67,0-526.17,0-526.17"/><path id="Pfad_7-2" data-name="Pfad 7" class="cls-1" d="M826.8,5400s49.58-209.86,0-505.36-295.22-587.58-295.22-587.58"/><g id="Ebene_2" data-name="Ebene 2"><g id="Ebene_1-2" data-name="Ebene 1-2"><g id="Gruppe_669-2" data-name="Gruppe 669"><g id="Gruppe_350-2" data-name="Gruppe 350"><g id="background_lines-2-2" data-name="background lines"><path id="Pfad_3388-3" data-name="Pfad 3388" class="cls-1" d="M1920.5,4064.5s-158.94-88.09-281.68-115.48c-226.32-50.52-468.83-7.36-506.58.06s-239,44.72-522-.88C302.54,3898.62-1.55,3653-1.55,3653"/><path id="Pfad_6-2-3" data-name="Pfad 6" class="cls-1" d="M1920.46,5250.71s-220.35,108.32-624.57,100-829-230.59-829-230.59S134.22,4962.72-3,4773.52"/></g></g></g></g></g><path class="cls-2" d="M-.5,5196.5c19-422,714-705,854.8-1269.52S920.5,2651.5,478.5,1918.5,516.5,379.5,647.7,0"/></svg>