<?xml version="1.0" encoding="UTF-8"?>
<svg width="682px" height="681px" viewBox="0 0 682 681" version="1.1" xmlns="http://www.w3.org/2000/svg" xmlns:xlink="http://www.w3.org/1999/xlink">
    <!-- Generator: Sketch 57.1 (83088) - https://sketch.com -->
    <title>gold_money_back_badge</title>
    <desc>Created with Sketch.</desc>
    <defs>
        <linearGradient x1="49.972387%" y1="100.020764%" x2="49.972387%" y2="0%" id="linearGradient-1">
            <stop stop-color="#DCA83D" offset="0%"/>
            <stop stop-color="#D99E3A" offset="16%"/>
            <stop stop-color="#F3F3BA" offset="54%"/>
            <stop stop-color="#F6EC99" offset="56%"/>
            <stop stop-color="#D6B767" offset="69%"/>
            <stop stop-color="#D1AC5C" offset="85%"/>
            <stop stop-color="#E0C77D" offset="100%"/>
        </linearGradient>
        <linearGradient x1="17.9596983%" y1="79.8745886%" x2="82.0447688%" y2="20.1142829%" id="linearGradient-2">
            <stop stop-color="#482C15" offset="0%"/>
            <stop stop-color="#A7722A" offset="10%"/>
            <stop stop-color="#FFFFFF" offset="15%"/>
            <stop stop-color="#DA9E43" offset="22%"/>
            <stop stop-color="#8F5A24" offset="34%"/>
            <stop stop-color="#D8A74D" offset="50%"/>
            <stop stop-color="#F5E380" offset="66%"/>
            <stop stop-color="#DAC163" offset="72%"/>
            <stop stop-color="#FFFFFF" offset="77%"/>
            <stop stop-color="#A0752B" offset="83%"/>
            <stop stop-color="#664319" offset="100%"/>
        </linearGradient>
        <linearGradient x1="48.3926217%" y1="92.3083044%" x2="51.6336624%" y2="7.54046134%" id="linearGradient-3">
            <stop stop-color="#DCA83D" offset="0%"/>
            <stop stop-color="#D99E3A" offset="16%"/>
            <stop stop-color="#A46C29" offset="30%"/>
            <stop stop-color="#8F5824" offset="49%"/>
            <stop stop-color="#F3F3BA" offset="54%"/>
            <stop stop-color="#F6EC99" offset="56%"/>
            <stop stop-color="#D6B767" offset="69%"/>
            <stop stop-color="#A77029" offset="75%"/>
            <stop stop-color="#D1AC5C" offset="85%"/>
            <stop stop-color="#E0C77D" offset="100%"/>
        </linearGradient>
    </defs>
    <g id="gold_money_back_badge" stroke="none" stroke-width="1" fill="none" fill-rule="evenodd">
        <g>
            <path d="M340.7,0 C347.2,0.4 354.3,19.8 360.8,20.2 C367.3,20.6 373.1,1.9 379.6,2.2 C386,3.3 390.8,23.4 397.2,24.5 C403.6,25.6 411.5,7.7 417.9,8.8 C424.1,10.6 426.6,31.2 432.9,33 C439.1,34.8 449.1,17.9 455.3,19.8 C461.3,22.3 461.4,43 467.4,45.5 C473.4,48 485.2,32.4 491.1,34.9 C496.7,38.1 494.6,58.7 500.2,61.9 C505.9,65.1 519.3,50.9 525,54.1 C530.2,57.9 525.7,78.1 531,81.9 C536.2,85.7 551.3,73.1 556.5,77 C561.3,81.4 554.5,100.9 559.3,105.3 C564.1,109.7 580.4,98.9 585.2,103.3 C589.5,108.2 580.5,126.8 584.7,131.7 C588.9,136.6 606.4,127.8 610.7,132.7 C614.4,138.1 603.3,155.5 607,160.9 C610.7,166.3 629,159.5 632.7,164.8 C635.7,170.5 622.8,186.7 625.8,192.4 C628.8,198.1 647.9,193.5 650.9,199.2 C653.3,205.2 638.5,219.8 640.9,225.8 C643.3,231.8 662.7,229.4 665,235.4 C666.6,241.7 650.4,254.4 652,260.7 C653.7,267 673.2,266.8 674.9,273 C675.8,279.4 658.2,290.3 659.1,296.7 C660,303.1 679.5,305.1 680.4,311.6 C680.6,318.1 661.8,326.8 662,333.3 C662.2,339.8 681.3,344 681.5,350.5 C680.9,357 661.3,363.5 660.8,370 C660.3,376.5 678.8,382.8 678.2,389.3 C676.9,395.7 656.7,399.9 655.4,406.3 C654.1,412.7 671.8,421.1 670.5,427.4 C668.5,433.6 647.9,435.5 645.9,441.7 C643.9,447.9 660.5,458.3 658.5,464.4 C655.8,470.3 635.1,469.9 632.4,475.8 C629.7,481.7 645,493.9 642.3,499.8 C638.9,505.4 618.4,502.6 615.1,508.1 C611.7,513.7 625.6,527.5 622.2,533.1 C618.2,538.2 598.2,533.1 594.2,538.3 C590.2,543.4 602.4,558.8 598.4,563.9 C593.9,568.6 574.5,561.2 570,565.9 C565.5,570.6 575.8,587.2 571.3,591.9 C566.3,596 547.9,586.5 542.9,590.6 C537.9,594.7 546.2,612.4 541.2,616.5 C535.7,620 518.6,608.5 513.1,612 C507.6,615.5 513.9,634.1 508.5,637.6 C502.7,640.4 486.9,627 481.1,629.9 C475.3,632.8 479.4,651.9 473.6,654.8 C467.5,657 453.4,641.8 447.3,644 C441.2,646.2 443.1,665.7 437,667.8 C430.7,669.3 418.4,652.6 412.1,654.1 C405.8,655.6 405.4,675.1 399.1,676.6 C392.7,677.3 382.3,659.4 375.9,660.1 C369.5,660.8 366.9,680.3 360.4,681 C353.9,681 345.7,662 339.2,662 C332.7,662 328,681 321.5,681 C315.1,680.3 309.1,660.4 302.6,659.7 C296.2,659 289.3,677.3 282.8,676.5 C276.5,675 272.8,654.7 266.5,653.2 C260.2,651.7 251.2,669.2 244.9,667.7 C238.8,665.5 237.5,644.9 231.3,642.7 C225.2,640.5 214.3,656.8 208.2,654.6 C202.4,651.7 203.4,631.1 197.6,628.2 C191.8,625.3 179.1,640.3 173.3,637.4 C167.8,633.9 171.2,613.5 165.8,610 C160.3,606.5 146.1,619.9 140.6,616.4 C135.6,612.3 141.3,592.4 136.2,588.3 C131.2,584.2 115.5,595.9 110.4,591.8 C105.9,587.2 113.8,568 109.3,563.4 C104.8,558.7 87.8,568.6 83.3,563.9 C79.3,558.8 89.4,540.7 85.4,535.5 C81.4,530.4 63.5,538.2 59.5,533.1 C56.2,527.5 68.2,510.7 64.8,505.2 C61.4,499.6 42.7,505.4 39.4,499.8 C36.7,493.9 50.6,478.5 47.9,472.6 C45.2,466.7 25.9,470.3 23.3,464.4 C21.3,458.2 36.8,444.6 34.8,438.4 C32.8,432.2 13.3,433.6 11.3,427.4 C10,421 27,409.2 25.7,402.9 C24.4,396.5 4.8,395.6 3.6,389.3 C3,382.8 21.3,373 20.7,366.6 C20.1,360.1 0.8,357 0.3,350.5 C0.5,344 19.7,336.4 19.9,329.9 C20.1,323.4 1.2,318.1 1.4,311.6 C2.3,305.2 22.3,299.8 23.2,293.3 C24.1,286.9 6,279.5 6.9,273 C8.5,266.7 29,263.6 30.7,257.4 C32.4,251.1 15.2,241.7 16.8,235.4 C19.2,229.4 39.8,228.6 42.2,222.6 C44.6,216.6 28.6,205.2 30.9,199.2 C33.9,193.5 54.6,195.1 57.6,189.3 C60.6,183.6 46.1,170.5 49.1,164.7 C52.8,159.3 73.1,163.3 76.7,157.9 C80.4,152.5 67.4,137.9 71,132.5 C75.2,127.6 95,133.8 99.2,128.9 C103.4,124 92.2,108 96.5,103.1 C101.3,98.7 120.2,107.2 125,102.8 C129.8,98.4 120.4,81.2 125.2,76.8 C130.4,73 148.2,83.5 153.5,79.7 C158.7,75.9 151.4,57.7 156.7,53.9 C162.4,50.7 178.8,63.2 184.5,60 C190.1,56.8 185,37.9 190.6,34.7 C196.6,32.2 211.5,46.5 217.5,44 C223.5,41.5 220.5,22.1 226.4,19.6 C232.6,17.8 245.8,33.7 252.1,31.9 C258.3,30.1 257.5,10.5 263.8,8.7 C270.2,7.6 281.5,24.9 287.9,23.8 C294.3,22.7 295.7,3.2 302.1,2 C308.6,1.6 317.9,20.1 324.3,19.8 C330.6,19.6 334.2,0.4 340.7,0 Z" id="Path" stroke="#6E4F32" fill="url(#linearGradient-1)"/>
            <path d="M340.7,584.8 C408,584.8 469,557.4 513.3,513.1 C557.5,468.9 585,407.8 585,340.5 C585,273.2 557.6,212.2 513.3,167.9 C469,123.8 408,96.3 340.7,96.3 C273.4,96.3 212.4,123.7 168.1,168 C123.9,212.2 96.4,273.3 96.4,340.6 C96.4,407.9 123.8,468.9 168.1,513.2 C212.4,557.4 273.5,584.8 340.7,584.8 L340.7,584.8 Z M521,520.9 C474.8,567.1 411,595.8 340.7,595.8 C270.4,595.8 206.6,567.1 160.4,520.9 C114.2,474.7 85.5,410.9 85.5,340.6 C85.5,270.3 114.2,206.5 160.4,160.3 C206.6,114.1 270.4,85.4 340.7,85.4 C411,85.4 474.8,114.1 521,160.3 C567.2,206.5 595.9,270.3 595.9,340.6 C595.9,410.8 567.2,474.7 521,520.9 Z" id="Shape" fill="url(#linearGradient-2)"/>
            <g id="Group" transform="translate(253.000000, 594.000000)" fill="#6D4F32">
                <polygon id="Path" points="86.4 53.5 91.8 43.6 102.7 43.6 94.9 35.3 98.3 25 88.1 29.8 79.2 23.4 80.7 34.6 71.9 41.1 83 43.2"/>
                <polygon id="Path" points="127.8 48.9 130.5 37.9 141 35.1 131.4 29.1 131.9 18.2 123.3 25.6 113.1 21.7 117.4 32.1 110.6 40.6 121.8 39.8"/>
                <polygon id="Path" points="166.6 33.7 166.4 22.4 175.8 16.9 165 13.7 162.7 3 156.2 12.3 145.4 11.2 152.3 20.2 147.8 30.2 158.5 26.4"/>
                <polygon id="Path" points="45.1 47.2 52.9 39.1 63.5 41.8 58.1 31.9 64 22.8 52.9 24.8 46 16.3 44.5 27.5 34.4 31.5 44.5 36.4"/>
                <polygon id="Path" points="7 30.5 16.6 24.6 26.1 30.1 23.5 19.1 31.5 11.8 20.3 10.8 15.8 0.9 11.5 11.3 0.6 12.5 9.2 19.9"/>
            </g>
            <g id="Group" transform="translate(252.000000, 35.000000)" fill="#6D4F32">
                <polygon id="Path" points="86.5 0.6 91.9 10.6 102.8 10.7 95 18.9 98.2 29.3 88.1 24.3 79.2 30.7 80.7 19.5 72 13 83.1 11"/>
                <polygon id="Path" points="127.9 5.5 130.5 16.5 141 19.4 131.4 25.3 131.8 36.2 123.3 28.8 113.1 32.6 117.4 22.2 110.7 13.7 121.9 14.6"/>
                <polygon id="Path" points="166.7 21 166.3 32.3 175.7 37.8 164.9 41 162.5 51.6 156.1 42.3 145.3 43.3 152.2 34.4 147.9 24.4 158.5 28.2"/>
                <polygon id="Path" points="45.3 6.6 53 14.8 63.6 12.1 58.1 22 64 31.2 52.9 29.1 46 37.5 44.5 26.3 34.4 22.3 44.6 17.5"/>
                <polygon id="Path" points="7 23.1 16.6 29 26.1 23.7 23.4 34.6 31.4 42 20.2 42.8 15.6 52.8 11.4 42.3 0.5 41.1 9.1 33.8"/>
            </g>
            <path d="M442.7,93.5 C475.5,107 505,126.9 529.6,151.6 C577.9,199.9 607.9,266.8 607.9,340.5 C607.9,414.3 578,481.1 529.6,529.5 C504.9,554.2 475.4,574.1 442.7,587.6 L438.9,582.6 C471.5,569.3 500.9,549.7 525.4,525.2 C572.7,477.9 601.9,412.6 601.9,340.5 C601.9,268.4 572.7,203.1 525.4,155.8 C500.9,131.3 471.5,111.6 438.9,98.4 L442.7,93.5 L442.7,93.5 Z M242.5,98.5 L242.5,98.5 C209.9,111.7 180.5,131.4 156,155.9 C108.7,203.2 79.5,268.5 79.5,340.6 C79.5,412.7 108.8,478 156,525.2 C180.5,549.7 209.9,569.3 242.5,582.6 L238.7,587.6 C205.9,574.1 176.4,554.2 151.8,529.5 C103.5,481.1 73.5,414.3 73.5,340.5 C73.5,266.7 103.4,199.9 151.8,151.6 C176.5,126.9 206,107 238.7,93.5 L242.5,98.5 L242.5,98.5 Z M462.6,67.6 L462.6,67.6 L458.8,72.5 C492.2,87.2 522.3,108 547.7,133.4 C600.7,186.4 633.5,259.6 633.5,340.5 C633.5,421.4 600.7,494.6 547.7,547.6 C522.3,573 492.2,593.8 458.8,608.6 L462.6,613.5 C496.1,598.5 526.4,577.5 552,551.9 C606.1,497.8 639.5,423.1 639.5,340.6 C639.5,258.1 606.1,183.4 552,129.3 C526.4,103.6 496.2,82.6 462.6,67.6 L462.6,67.6 Z M222.6,72.6 L222.6,72.6 L218.8,67.7 C185.3,82.7 155,103.7 129.4,129.3 C75.3,183.3 41.8,258 41.8,340.6 C41.8,423.1 75.3,497.8 129.3,551.9 C154.9,577.5 185.2,598.5 218.7,613.5 L222.5,608.6 C189.1,593.9 159,573.1 133.6,547.6 C80.6,494.6 47.8,421.4 47.8,340.5 C47.8,259.6 80.6,186.4 133.6,133.4 C159.1,108.1 189.2,87.3 222.6,72.6 L222.6,72.6 Z M455.8,76.6 L455.8,76.6 L452,81.5 C485.1,95.7 514.9,116.1 540.1,141.3 C591.1,192.3 622.7,262.8 622.7,340.6 C622.7,418.4 591.1,488.9 540.1,539.9 C515,565 485.1,585.4 452,599.6 L455.8,604.5 C489.1,590 519,569.4 544.3,544.1 C596.4,492 628.6,420 628.6,340.5 C628.6,261 596.4,189 544.3,136.9 C519,111.7 489,91.1 455.8,76.6 L455.8,76.6 Z M229.5,81.5 L229.5,81.5 L225.7,76.6 C192.4,91.1 162.5,111.7 137.2,137 C85,189.1 52.8,261.1 52.8,340.6 C52.8,420.1 85,492.1 137.1,544.2 C162.4,569.5 192.4,590.1 225.6,604.6 L229.4,599.7 C196.3,585.5 166.5,565.1 141.3,540 C90.3,489 58.7,418.5 58.7,340.7 C58.7,262.9 90.3,192.4 141.3,141.4 C166.5,116.1 196.3,95.7 229.5,81.5 L229.5,81.5 Z M449.1,85.2 L449.1,85.2 L445.3,90.2 C478.2,103.9 507.7,124 532.5,148.8 C581.6,197.9 612,265.7 612,340.7 C612,415.6 581.6,483.5 532.5,532.6 C507.7,557.4 478.1,577.4 445.3,591.2 L449.1,596.2 C482.1,582.2 511.8,561.9 536.8,537 C587,486.8 618,417.5 618,340.9 C618,264.3 587,195 536.8,144.8 C511.9,119.5 482.1,99.2 449.1,85.2 L449.1,85.2 Z M236.1,90.1 L236.1,90.1 L232.3,85.1 C199.3,99.1 169.6,119.4 144.6,144.3 C94.4,194.6 63.3,264 63.3,340.6 C63.3,417.2 94.3,486.5 144.5,536.7 C169.5,561.7 199.2,581.9 232.2,595.9 L236,590.9 C203.1,577.2 173.6,557.1 148.8,532.3 C99.7,483.2 69.3,415.4 69.3,340.4 C69.3,265.5 99.7,197.6 148.8,148.5 C173.7,123.9 203.2,103.9 236.1,90.1 Z" id="Shape" fill="url(#linearGradient-3)"/>
            <g id="Group" transform="translate(137.000000, 227.000000)" fill-rule="nonzero">
                <g opacity="0.77" transform="translate(0.000000, 3.000000)" fill="#F6EC99">
                    <polygon id="Path" points="0.9 1.7 27.5 1.7 43.9 28.5 60.3 1.7 86.9 1.7 86.9 78.1 61.5 78.1 61.5 40.2 43.9 67.4 43.5 67.4 25.9 40.2 25.9 78.1 0.9 78.1"/>
                    <path d="M91.7,40.1 L91.7,39.9 C91.7,17.8 109.9,0.1 133.5,0.1 C157.1,0.1 175.1,17.6 175.1,39.7 L175.1,39.9 C175.1,62 156.9,79.7 133.3,79.7 C109.7,79.7 91.7,62.3 91.7,40.1 Z M149.3,40.1 L149.3,39.9 C149.3,30.8 143.1,22.7 133.3,22.7 C123.6,22.7 117.5,30.8 117.5,39.7 L117.5,39.9 C117.5,49 123.7,57.1 133.5,57.1 C143.2,57.1 149.3,49.1 149.3,40.1 Z" id="Shape"/>
                    <polygon id="Path" points="179.8 1.7 203.7 1.7 230.9 35.4 230.9 1.7 256.2 1.7 256.2 78.1 233.5 78.1 205.1 42.9 205.1 78.1 179.8 78.1"/>
                    <polygon id="Path" points="262.8 1.7 327.9 1.7 327.9 22.6 287.9 22.6 287.9 30.3 325.2 30.3 325.2 48.7 287.9 48.7 287.9 57 328.5 57 328.5 77.9 262.8 77.9"/>
                    <polygon id="Path" points="355.8 51 327 1.7 355.6 1.7 368.7 26.8 381.9 1.7 410.2 1.7 381.4 50.7 381.4 78.1 355.9 78.1 355.9 51"/>
                    <path d="M47.8,95.8 L90.6,95.8 C101.2,95.8 107.8,98.2 112.3,102.7 C115,105.4 117,109.4 117,114.6 L117,114.8 C117,123.9 111.5,129.4 103.4,132.3 C113.2,135.1 119.5,140.4 119.5,150.8 L119.5,151 C119.5,163.2 109.5,172.2 90.2,172.2 L47.9,172.2 L47.9,95.8 L47.8,95.8 Z M91.9,120.4 C91.9,117 89.2,115.2 83.7,115.2 L72.7,115.2 L72.7,125.9 L83.8,125.9 C89.3,125.9 91.9,124 91.9,120.7 L91.9,120.4 Z M85.5,141.5 L72.6,141.5 L72.6,152.8 L85.4,152.8 C91,152.8 93.8,150.5 93.8,147.2 L93.8,147 C93.8,143.8 91.1,141.5 85.5,141.5 Z" id="Shape"/>
                    <path d="M151.6,95.3 L177,95.3 L209.2,172.2 L181.5,172.2 L177.5,161.9 L150.8,161.9 L146.9,172.2 L119.6,172.2 L151.6,95.3 Z M171.1,143.8 L164.1,125.3 L157.1,143.8 L171.1,143.8 Z" id="Shape"/>
                    <path d="M205.6,134.2 L205.6,134 C205.6,111.2 223.4,94.2 246.2,94.2 C263,94.2 274.3,102.4 280.8,114.1 L259.7,126.4 C256.9,120.9 252.8,117.1 245.8,117.1 C237.2,117.1 231.5,124.6 231.5,133.8 L231.5,134 C231.5,143.9 237.4,150.9 245.8,150.9 C253,150.9 257,147 260.2,141.3 L281.3,153.2 C274.9,164.5 264.2,173.8 245.2,173.8 C224.1,173.8 205.6,157.9 205.6,134.2 Z" id="Path"/>
                    <polygon id="Path" points="286.3 95.8 311.8 95.8 311.8 124.4 333.5 95.8 363.2 95.8 336.6 129 363.8 172.2 333.4 172.2 318.3 148 311.8 156 311.8 172.3 286.3 172.3"/>
                </g>
                <g fill="#593615">
                    <polygon id="Path" points="0.9 1.7 27.5 1.7 43.9 28.5 60.3 1.7 86.9 1.7 86.9 78.1 61.5 78.1 61.5 40.2 43.9 67.4 43.5 67.4 25.9 40.2 25.9 78.1 0.9 78.1"/>
                    <path d="M91.7,40.1 L91.7,39.9 C91.7,17.8 109.9,0.1 133.5,0.1 C157.1,0.1 175.1,17.6 175.1,39.7 L175.1,39.9 C175.1,62 156.9,79.7 133.3,79.7 C109.7,79.7 91.7,62.3 91.7,40.1 Z M149.3,40.1 L149.3,39.9 C149.3,30.8 143.1,22.7 133.3,22.7 C123.6,22.7 117.5,30.8 117.5,39.7 L117.5,39.9 C117.5,49 123.7,57.1 133.5,57.1 C143.2,57.1 149.3,49.1 149.3,40.1 Z" id="Shape"/>
                    <polygon id="Path" points="179.8 1.7 203.7 1.7 230.9 35.4 230.9 1.7 256.2 1.7 256.2 78.1 233.5 78.1 205.1 42.9 205.1 78.1 179.8 78.1"/>
                    <polygon id="Path" points="262.8 1.7 327.9 1.7 327.9 22.6 287.9 22.6 287.9 30.3 325.2 30.3 325.2 48.7 287.9 48.7 287.9 57 328.5 57 328.5 77.9 262.8 77.9"/>
                    <polygon id="Path" points="355.8 51 327 1.7 355.6 1.7 368.7 26.8 381.9 1.7 410.2 1.7 381.4 50.7 381.4 78.1 355.9 78.1 355.9 51"/>
                    <path d="M47.8,95.8 L90.6,95.8 C101.2,95.8 107.8,98.2 112.3,102.7 C115,105.4 117,109.4 117,114.6 L117,114.8 C117,123.9 111.5,129.4 103.4,132.3 C113.2,135.1 119.5,140.4 119.5,150.8 L119.5,151 C119.5,163.2 109.5,172.2 90.2,172.2 L47.9,172.2 L47.9,95.8 L47.8,95.8 Z M91.9,120.4 C91.9,117 89.2,115.2 83.7,115.2 L72.7,115.2 L72.7,125.9 L83.8,125.9 C89.3,125.9 91.9,124 91.9,120.7 L91.9,120.4 Z M85.5,141.5 L72.6,141.5 L72.6,152.8 L85.4,152.8 C91,152.8 93.8,150.5 93.8,147.2 L93.8,147 C93.8,143.8 91.1,141.5 85.5,141.5 Z" id="Shape"/>
                    <path d="M151.6,95.3 L177,95.3 L209.2,172.2 L181.5,172.2 L177.5,161.9 L150.8,161.9 L146.9,172.2 L119.6,172.2 L151.6,95.3 Z M171.1,143.8 L164.1,125.3 L157.1,143.8 L171.1,143.8 Z" id="Shape"/>
                    <path d="M205.6,134.2 L205.6,134 C205.6,111.2 223.4,94.2 246.2,94.2 C263,94.2 274.3,102.4 280.8,114.1 L259.7,126.4 C256.9,120.9 252.8,117.1 245.8,117.1 C237.2,117.1 231.5,124.6 231.5,133.8 L231.5,134 C231.5,143.9 237.4,150.9 245.8,150.9 C253,150.9 257,147 260.2,141.3 L281.3,153.2 C274.9,164.5 264.2,173.8 245.2,173.8 C224.1,173.8 205.6,157.9 205.6,134.2 Z" id="Path"/>
                    <polygon id="Path" points="286.3 95.8 311.8 95.8 311.8 124.4 333.5 95.8 363.2 95.8 336.6 129 363.8 172.2 333.4 172.2 318.3 148 311.8 156 311.8 172.3 286.3 172.3"/>
                </g>
            </g>
            <g id="Group" transform="translate(192.000000, 444.000000)" fill-rule="nonzero">
                <g opacity="0.77" transform="translate(0.000000, 3.000000)" fill="#F6EC99">
                    <path d="M0.6,17.9 L0.6,17.9 C0.6,8.2 8.1,0.3 18.4,0.3 C24.5,0.3 28.2,1.9 31.7,5 L27,10.7 C24.4,8.5 22.1,7.3 18.1,7.3 C12.7,7.3 8.4,12.1 8.4,17.9 L8.4,18 C8.4,24.2 12.7,28.8 18.7,28.8 C21.4,28.8 23.8,28.1 25.7,26.8 L25.7,22 L18.2,22 L18.2,15.6 L32.9,15.6 L32.9,30 C29.4,33 24.6,35.4 18.4,35.4 C7.8,35.4 0.6,27.9 0.6,17.9 Z" id="Path"/>
                    <path d="M37.6,20.2 L37.6,0.8 L45.1,0.8 L45.1,20 C45.1,25.5 47.9,28.4 52.4,28.4 C56.9,28.4 59.7,25.6 59.7,20.3 L59.7,0.9 L67.2,0.9 L67.2,20 C67.2,30.3 61.4,35.3 52.3,35.3 C43.2,35.3 37.6,30.2 37.6,20.2 Z" id="Path"/>
                    <path d="M83.3,0.6 L90.2,0.6 L104.7,34.8 L96.9,34.8 L93.8,27.2 L79.4,27.2 L76.3,34.8 L68.7,34.8 L83.3,0.6 Z M91.1,20.6 L86.6,9.6 L82.1,20.6 L91.1,20.6 Z" id="Shape"/>
                    <path d="M108,0.8 L123.5,0.8 C127.8,0.8 131.2,2 133.4,4.2 C135.3,6.1 136.3,8.8 136.3,12 L136.3,12.1 C136.3,17.6 133.3,21 129,22.6 L137.3,34.7 L128.6,34.7 L121.3,23.8 L115.4,23.8 L115.4,34.7 L108,34.7 L108,0.8 Z M123,17.3 C126.6,17.3 128.7,15.4 128.7,12.5 L128.7,12.4 C128.7,9.2 126.5,7.6 122.8,7.6 L115.4,7.6 L115.4,17.3 L123,17.3 L123,17.3 Z" id="Shape"/>
                    <path d="M152.8,0.6 L159.7,0.6 L174.2,34.8 L166.4,34.8 L163.3,27.2 L148.9,27.2 L145.8,34.8 L138.2,34.8 L152.8,0.6 Z M160.6,20.6 L156.1,9.6 L151.6,20.6 L160.6,20.6 Z" id="Shape"/>
                    <polygon id="Path" points="177.5 0.8 184.4 0.8 200.3 21.7 200.3 0.8 207.7 0.8 207.7 34.7 201.3 34.7 184.9 13.1 184.9 34.7 177.5 34.7"/>
                    <polygon id="Path" points="221.8 7.7 211.5 7.7 211.5 0.8 239.6 0.8 239.6 7.7 229.3 7.7 229.3 34.8 221.8 34.8"/>
                    <polygon id="Path" points="243.3 0.8 268.9 0.8 268.9 7.4 250.7 7.4 250.7 14.3 266.7 14.3 266.7 20.9 250.7 20.9 250.7 28 269.1 28 269.1 34.6 243.3 34.6"/>
                    <polygon id="Path" points="273.9 0.8 299.5 0.8 299.5 7.4 281.3 7.4 281.3 14.3 297.3 14.3 297.3 20.9 281.3 20.9 281.3 28 299.7 28 299.7 34.6 273.9 34.6 273.9 0.8"/>
                </g>
                <g fill="#593615">
                    <path d="M0.6,17.9 L0.6,17.9 C0.6,8.2 8.1,0.3 18.4,0.3 C24.5,0.3 28.2,1.9 31.7,5 L27,10.7 C24.4,8.5 22.1,7.3 18.1,7.3 C12.7,7.3 8.4,12.1 8.4,17.9 L8.4,18 C8.4,24.2 12.7,28.8 18.7,28.8 C21.4,28.8 23.8,28.1 25.7,26.8 L25.7,22 L18.2,22 L18.2,15.6 L32.9,15.6 L32.9,30 C29.4,33 24.6,35.4 18.4,35.4 C7.8,35.4 0.6,27.9 0.6,17.9 Z" id="Path"/>
                    <path d="M37.6,20.2 L37.6,0.8 L45.1,0.8 L45.1,20 C45.1,25.5 47.9,28.4 52.4,28.4 C56.9,28.4 59.7,25.6 59.7,20.3 L59.7,0.9 L67.2,0.9 L67.2,20 C67.2,30.3 61.4,35.3 52.3,35.3 C43.2,35.3 37.6,30.2 37.6,20.2 Z" id="Path"/>
                    <path d="M83.3,0.6 L90.2,0.6 L104.7,34.8 L96.9,34.8 L93.8,27.2 L79.4,27.2 L76.3,34.8 L68.7,34.8 L83.3,0.6 Z M91.1,20.6 L86.6,9.6 L82.1,20.6 L91.1,20.6 Z" id="Shape"/>
                    <path d="M108,0.8 L123.5,0.8 C127.8,0.8 131.2,2 133.4,4.2 C135.3,6.1 136.3,8.8 136.3,12 L136.3,12.1 C136.3,17.6 133.3,21 129,22.6 L137.3,34.7 L128.6,34.7 L121.3,23.8 L115.4,23.8 L115.4,34.7 L108,34.7 L108,0.8 Z M123,17.3 C126.6,17.3 128.7,15.4 128.7,12.5 L128.7,12.4 C128.7,9.2 126.5,7.6 122.8,7.6 L115.4,7.6 L115.4,17.3 L123,17.3 L123,17.3 Z" id="Shape"/>
                    <path d="M152.8,0.6 L159.7,0.6 L174.2,34.8 L166.4,34.8 L163.3,27.2 L148.9,27.2 L145.8,34.8 L138.2,34.8 L152.8,0.6 Z M160.6,20.6 L156.1,9.6 L151.6,20.6 L160.6,20.6 Z" id="Shape"/>
                    <polygon id="Path" points="177.5 0.8 184.4 0.8 200.3 21.7 200.3 0.8 207.7 0.8 207.7 34.7 201.3 34.7 184.9 13.1 184.9 34.7 177.5 34.7"/>
                    <polygon id="Path" points="221.8 7.7 211.5 7.7 211.5 0.8 239.6 0.8 239.6 7.7 229.3 7.7 229.3 34.8 221.8 34.8"/>
                    <polygon id="Path" points="243.3 0.8 268.9 0.8 268.9 7.4 250.7 7.4 250.7 14.3 266.7 14.3 266.7 20.9 250.7 20.9 250.7 28 269.1 28 269.1 34.6 243.3 34.6"/>
                    <polygon id="Path" points="273.9 0.8 299.5 0.8 299.5 7.4 281.3 7.4 281.3 14.3 297.3 14.3 297.3 20.9 281.3 20.9 281.3 28 299.7 28 299.7 34.6 273.9 34.6 273.9 0.8"/>
                </g>
            </g>
            <g id="Group" transform="translate(185.000000, 489.000000)" fill-rule="nonzero">
                <g opacity="0.77" transform="translate(0.000000, 3.000000)" fill="#F6EC99" id="Rectangle">
                    <rect x="0.7" y="0.7" width="314.7" height="5.6"/>
                </g>
                <rect id="Rectangle" fill="#593615" x="0.7" y="0.7" width="314.7" height="5.6"/>
            </g>
            <g id="Group" transform="translate(185.000000, 426.000000)" fill-rule="nonzero">
                <g opacity="0.77" transform="translate(0.000000, 3.000000)" fill="#F6EC99" id="Rectangle">
                    <rect x="0.7" y="0.9" width="314.7" height="5.6"/>
                </g>
                <rect id="Rectangle" fill="#593615" x="0.7" y="0.9" width="314.7" height="5.6"/>
            </g>
        </g>
    </g>
</svg>